# xmcd CD database file
#
# Track frame offsets:
#	150
#	18300
#	32450
#	51797
#	67787
#	87780
#	104912
#	125215
#	143207
#	164745
#
# Disc length: 2421 seconds
#
# Revision: 4
# Processed by: cddbd v1.5.2PL0 Copyright (c) Steve Scherf et al.
# Submitted via: CDex 1.70beta2
#
DISCID=8909730a
DTITLE=John Denver - Homegrown [CD 2)
DYEAR=1997
DGENRE=Country
TTITLE0=Windsong
TTITLE1=Annie's Song
TTITLE2=Potter's Wheel
TTITLE3=Two Different Directions
TTITLE4=Chained To The Wheel
TTITLE5=A Country Girl In Paris
TTITLE6=All This Joy
TTITLE7=Thanks To You
TTITLE8=The Gift You Are
TTITLE9=I Want To Live
EXTD=The John Denver Collection YEAR: 1997
EXTT0=
EXTT1=
EXTT2=
EXTT3=
EXTT4=
EXTT5=
EXTT6=
EXTT7=
EXTT8=
EXTT9=
PLAYORDER=
